<?xml version="1.0" standalone="no"?>
<!DOCTYPE svg PUBLIC "-//W3C//DTD SVG 20010904//EN"
 "http://www.w3.org/TR/2001/REC-SVG-20010904/DTD/svg10.dtd">
<svg version="1.0" xmlns="http://www.w3.org/2000/svg"
 width="507.000000pt" height="460.000000pt" viewBox="0 0 507.000000 460.000000"
 preserveAspectRatio="xMidYMid meet">

<g transform="translate(0.000000,460.000000) scale(0.100000,-0.100000)"
fill="#000000" stroke="none">
<path d="M0 2300 l0 -2300 2535 0 2535 0 0 2300 0 2300 -2535 0 -2535 0 0
-2300z m1788 773 l-3 -168 -92 -3 -93 -3 0 171 0 170 95 0 95 0 -2 -167z
m1762 -538 l0 -705 -105 0 -105 0 0 559 0 558 38 55 c135 196 165 238 168 238
2 0 4 -317 4 -705z m-1177 592 c25 -37 44 -74 41 -81 -3 -8 -1 -17 5 -21 7 -3
8 0 5 9 -14 36 7 11 69 -83 37 -55 71 -102 77 -106 6 -4 7 -12 1 -24 -7 -13
-6 -18 4 -18 8 0 11 5 8 11 -4 6 1 5 11 -3 9 -8 15 -20 12 -27 -3 -8 -1 -13 3
-11 5 1 10 -2 12 -8 1 -5 9 -16 17 -24 7 -8 24 -30 37 -50 12 -20 58 -86 101
-148 85 -119 236 -340 248 -360 6 -10 -18 -13 -107 -13 l-114 0 -69 100 c-125
181 -227 321 -231 317 -2 -3 -4 -171 -3 -374 l0 -370 -151 -6 c-84 -4 -289 -7
-456 -7 l-303 0 0 365 0 365 105 0 105 0 0 -250 0 -250 250 2 251 3 -1 580 c0
494 2 577 14 565 7 -8 34 -46 59 -83z"/>
<path d="M2746 2533 c-6 -14 -5 -15 5 -6 7 7 10 15 7 18 -3 3 -9 -2 -12 -12z"/>
<path d="M2886 2347 c3 -10 9 -15 12 -12 3 3 0 11 -7 18 -10 9 -11 8 -5 -6z"/>
<path d="M2886 2307 c3 -10 9 -15 12 -12 3 3 0 11 -7 18 -10 9 -11 8 -5 -6z"/>
</g>
</svg>
